<svg id="visual" viewBox="0 0 1920 200" width="1920" height="200" xmlns="http://www.w3.org/2000/svg" xmlns:xlink="http://www.w3.org/1999/xlink" version="1.1"><path d="M0 123L16 116C32 109 64 95 96 92C128 89 160 97 192 96.3C224 95.7 256 86.3 288 81.5C320 76.7 352 76.3 384 76.7C416 77 448 78 480 81.7C512 85.3 544 91.7 576 103.2C608 114.7 640 131.3 672 132.5C704 133.7 736 119.3 768 109.3C800 99.3 832 93.7 864 89C896 84.3 928 80.7 960 82.3C992 84 1024 91 1056 101.5C1088 112 1120 126 1152 130.3C1184 134.7 1216 129.3 1248 117.8C1280 106.3 1312 88.7 1344 84.2C1376 79.7 1408 88.3 1440 99.3C1472 110.3 1504 123.7 1536 121.7C1568 119.7 1600 102.3 1632 98.8C1664 95.3 1696 105.7 1728 103.3C1760 101 1792 86 1824 88.3C1856 90.7 1888 110.3 1904 120.2L1920 130L1920 0L1904 0C1888 0 1856 0 1824 0C1792 0 1760 0 1728 0C1696 0 1664 0 1632 0C1600 0 1568 0 1536 0C1504 0 1472 0 1440 0C1408 0 1376 0 1344 0C1312 0 1280 0 1248 0C1216 0 1184 0 1152 0C1120 0 1088 0 1056 0C1024 0 992 0 960 0C928 0 896 0 864 0C832 0 800 0 768 0C736 0 704 0 672 0C640 0 608 0 576 0C544 0 512 0 480 0C448 0 416 0 384 0C352 0 320 0 288 0C256 0 224 0 192 0C160 0 128 0 96 0C64 0 32 0 16 0L0 0Z" fill="#f4e9eb"></path><path d="M0 80L16 83.3C32 86.7 64 93.3 96 90.3C128 87.3 160 74.7 192 74.2C224 73.7 256 85.3 288 86.3C320 87.3 352 77.7 384 74.7C416 71.7 448 75.3 480 71.3C512 67.3 544 55.7 576 60.2C608 64.7 640 85.3 672 94.5C704 103.7 736 101.3 768 95.8C800 90.3 832 81.7 864 81.2C896 80.7 928 88.3 960 88.8C992 89.3 1024 82.7 1056 83C1088 83.3 1120 90.7 1152 88.2C1184 85.7 1216 73.3 1248 63.8C1280 54.3 1312 47.7 1344 48.5C1376 49.3 1408 57.7 1440 57.3C1472 57 1504 48 1536 47.5C1568 47 1600 55 1632 57.3C1664 59.7 1696 56.3 1728 60C1760 63.7 1792 74.3 1824 72.7C1856 71 1888 57 1904 50L1920 43L1920 0L1904 0C1888 0 1856 0 1824 0C1792 0 1760 0 1728 0C1696 0 1664 0 1632 0C1600 0 1568 0 1536 0C1504 0 1472 0 1440 0C1408 0 1376 0 1344 0C1312 0 1280 0 1248 0C1216 0 1184 0 1152 0C1120 0 1088 0 1056 0C1024 0 992 0 960 0C928 0 896 0 864 0C832 0 800 0 768 0C736 0 704 0 672 0C640 0 608 0 576 0C544 0 512 0 480 0C448 0 416 0 384 0C352 0 320 0 288 0C256 0 224 0 192 0C160 0 128 0 96 0C64 0 32 0 16 0L0 0Z" fill="#ffa4a7"></path><path d="M0 63L16 62.8C32 62.7 64 62.3 96 57.5C128 52.7 160 43.3 192 38.2C224 33 256 32 288 38.3C320 44.7 352 58.3 384 63.3C416 68.3 448 64.7 480 59.8C512 55 544 49 576 47.3C608 45.7 640 48.3 672 48.3C704 48.3 736 45.7 768 47.8C800 50 832 57 864 61.7C896 66.3 928 68.7 960 65.8C992 63 1024 55 1056 50.2C1088 45.3 1120 43.7 1152 46.8C1184 50 1216 58 1248 63C1280 68 1312 70 1344 68.7C1376 67.3 1408 62.7 1440 60.8C1472 59 1504 60 1536 55.2C1568 50.3 1600 39.7 1632 38.2C1664 36.7 1696 44.3 1728 51C1760 57.7 1792 63.3 1824 59C1856 54.7 1888 40.3 1904 33.2L1920 26L1920 0L1904 0C1888 0 1856 0 1824 0C1792 0 1760 0 1728 0C1696 0 1664 0 1632 0C1600 0 1568 0 1536 0C1504 0 1472 0 1440 0C1408 0 1376 0 1344 0C1312 0 1280 0 1248 0C1216 0 1184 0 1152 0C1120 0 1088 0 1056 0C1024 0 992 0 960 0C928 0 896 0 864 0C832 0 800 0 768 0C736 0 704 0 672 0C640 0 608 0 576 0C544 0 512 0 480 0C448 0 416 0 384 0C352 0 320 0 288 0C256 0 224 0 192 0C160 0 128 0 96 0C64 0 32 0 16 0L0 0Z" fill="#fc5f4a"></path></svg>