<svg id="visual" viewBox="0 0 1920 1080" width="1920" height="1080" xmlns="http://www.w3.org/2000/svg" xmlns:xlink="http://www.w3.org/1999/xlink" version="1.1"><rect x="0" y="0" width="1920" height="1080" fill="#050503"></rect><path d="M0 10L106.7 62.7C213.3 115.3 426.7 220.7 640 241.7C853.3 262.7 1066.7 199.3 1280 157.7C1493.3 116 1706.7 96 1813.3 86L1920 76L1920 0L1813.3 0C1706.7 0 1493.3 0 1280 0C1066.7 0 853.3 0 640 0C426.7 0 213.3 0 106.7 0L0 0Z" fill="#242227"></path><path d="M0 48L106.7 76.3C213.3 104.7 426.7 161.3 640 175.5C853.3 189.7 1066.7 161.3 1280 129.2C1493.3 97 1706.7 61 1813.3 43L1920 25L1920 0L1813.3 0C1706.7 0 1493.3 0 1280 0C1066.7 0 853.3 0 640 0C426.7 0 213.3 0 106.7 0L0 0Z" fill="#16151d"></path><path d="M0 316L106.7 264.2C213.3 212.3 426.7 108.7 640 63.2C853.3 17.7 1066.7 30.3 1280 59.8C1493.3 89.3 1706.7 135.7 1813.3 158.8L1920 182L1920 0L1813.3 0C1706.7 0 1493.3 0 1280 0C1066.7 0 853.3 0 640 0C426.7 0 213.3 0 106.7 0L0 0Z" fill="#16151d"></path><path d="M0 34L106.7 35.8C213.3 37.7 426.7 41.3 640 62.5C853.3 83.7 1066.7 122.3 1280 150.8C1493.3 179.3 1706.7 197.7 1813.3 206.8L1920 216L1920 0L1813.3 0C1706.7 0 1493.3 0 1280 0C1066.7 0 853.3 0 640 0C426.7 0 213.3 0 106.7 0L0 0Z" fill="#242227"></path><path d="M0 121L106.7 106.2C213.3 91.3 426.7 61.7 640 48.8C853.3 36 1066.7 40 1280 62.3C1493.3 84.7 1706.7 125.3 1813.3 145.7L1920 166L1920 0L1813.3 0C1706.7 0 1493.3 0 1280 0C1066.7 0 853.3 0 640 0C426.7 0 213.3 0 106.7 0L0 0Z" fill="#050503"></path></svg>