<svg id="visual" viewBox="0 0 1920 1080" width="1920" height="1080" xmlns="http://www.w3.org/2000/svg" xmlns:xlink="http://www.w3.org/1999/xlink" version="1.1"><rect x="0" y="0" width="1920" height="1080" fill="#050503"></rect><path d="M0 1068L106.7 1015.3C213.3 962.7 426.7 857.3 640 836.3C853.3 815.3 1066.7 878.7 1280 920.3C1493.3 962 1706.7 982 1813.3 992L1920 1002L1920 1081L1813.3 1081C1706.7 1081 1493.3 1081 1280 1081C1066.7 1081 853.3 1081 640 1081C426.7 1081 213.3 1081 106.7 1081L0 1081Z" fill="#242227"></path><path d="M0 1030L106.7 1001.7C213.3 973.3 426.7 916.7 640 902.5C853.3 888.3 1066.7 916.7 1280 948.8C1493.3 981 1706.7 1017 1813.3 1035L1920 1053L1920 1081L1813.3 1081C1706.7 1081 1493.3 1081 1280 1081C1066.7 1081 853.3 1081 640 1081C426.7 1081 213.3 1081 106.7 1081L0 1081Z" fill="#16151d"></path><path d="M0 762L106.7 813.8C213.3 865.7 426.7 969.3 640 1014.8C853.3 1060.3 1066.7 1047.7 1280 1018.2C1493.3 988.7 1706.7 942.3 1813.3 919.2L1920 896L1920 1081L1813.3 1081C1706.7 1081 1493.3 1081 1280 1081C1066.7 1081 853.3 1081 640 1081C426.7 1081 213.3 1081 106.7 1081L0 1081Z" fill="#16151d"></path><path d="M0 1044L106.7 1042.2C213.3 1040.3 426.7 1036.7 640 1015.5C853.3 994.3 1066.7 955.7 1280 927.2C1493.3 898.7 1706.7 880.3 1813.3 871.2L1920 862L1920 1081L1813.3 1081C1706.7 1081 1493.3 1081 1280 1081C1066.7 1081 853.3 1081 640 1081C426.7 1081 213.3 1081 106.7 1081L0 1081Z" fill="#242227"></path><path d="M0 957L106.7 971.8C213.3 986.7 426.7 1016.3 640 1029.2C853.3 1042 1066.7 1038 1280 1015.7C1493.3 993.3 1706.7 952.7 1813.3 932.3L1920 912L1920 1081L1813.3 1081C1706.7 1081 1493.3 1081 1280 1081C1066.7 1081 853.3 1081 640 1081C426.7 1081 213.3 1081 106.7 1081L0 1081Z" fill="#050503"></path></svg>